<svg width="40" height="41" viewBox="0 0 40 41" fill="none" xmlns="http://www.w3.org/2000/svg">
<path d="M19.7077 9.72178C20.4282 9.01985 21.2852 8.46224 22.2295 8.08097C23.1739 7.69969 24.1869 7.50226 25.2105 7.50002C26.2341 7.49778 27.248 7.69076 28.1941 8.06789C29.1403 8.44503 29.9999 8.99888 30.7237 9.69764C31.4475 10.3964 32.0211 11.2263 32.4118 12.1397C32.8024 13.0531 33.0023 14.032 33 15.0202C32.9977 16.0084 32.7932 16.9865 32.3982 17.8982C32.0033 18.8098 31.4257 19.6372 30.6987 20.3328L18.3827 32.2231C17.4946 33.0516 16.305 33.5101 15.0701 33.4998C13.8352 33.4896 12.6539 33.0114 11.7807 32.1683C10.9075 31.3252 10.4124 30.1846 10.402 28.9924C10.3915 27.8002 10.8666 26.6518 11.7249 25.7945L22.6639 15.2337C22.8455 15.0643 23.0888 14.9706 23.3412 14.9728C23.5937 14.9749 23.8352 15.0726 24.0138 15.245C24.1923 15.4174 24.2936 15.6505 24.2958 15.8943C24.298 16.138 24.2009 16.3729 24.0255 16.5482L13.0865 27.109C12.5844 27.6166 12.3079 28.2937 12.3163 28.9955C12.3246 29.6974 12.6171 30.3682 13.1312 30.8645C13.6453 31.3608 14.3401 31.6432 15.067 31.6512C15.794 31.6593 16.4954 31.3924 17.0211 30.9076L29.3371 19.0174C29.8858 18.4945 30.322 17.8721 30.6206 17.1858C30.9192 16.4995 31.0742 15.763 31.0767 15.0187C31.0792 14.2744 30.9292 13.5369 30.6353 12.8488C30.3414 12.1607 29.9094 11.5355 29.3642 11.0092C28.819 10.4829 28.1714 10.0659 27.4586 9.78224C26.7458 9.49858 25.9819 9.35385 25.2109 9.35637C24.4399 9.35889 23.6771 9.50862 22.9663 9.79694C22.2555 10.0853 21.6108 10.5065 21.0693 11.0363L7.65557 23.9863C7.56674 24.0751 7.46048 24.146 7.343 24.1947C7.22552 24.2434 7.09916 24.2691 6.97131 24.2701C6.84345 24.2712 6.71665 24.2477 6.59831 24.2009C6.47996 24.1542 6.37245 24.0852 6.28204 23.9979C6.19163 23.9106 6.12012 23.8068 6.07171 23.6925C6.02329 23.5783 5.99893 23.4559 6.00004 23.3324C6.00115 23.209 6.02771 23.087 6.07818 22.9736C6.12864 22.8602 6.202 22.7576 6.29397 22.6718L19.7077 9.72178Z" fill="#C1C1C1"/>
</svg>
