<svg width="40" height="41" viewBox="0 0 40 41" fill="none" xmlns="http://www.w3.org/2000/svg">
<path d="M6 20.4999C6 20.2062 6.11494 19.9244 6.31952 19.7167C6.52411 19.509 6.80159 19.3923 7.09092 19.3923L30.2438 19.3923L21.235 10.3982C21.1328 10.2962 21.0514 10.1747 20.9955 10.0407C20.9395 9.90679 20.9101 9.76295 20.9088 9.61744C20.9076 9.47194 20.9347 9.32761 20.9884 9.19271C21.0421 9.05781 21.1215 8.93497 21.2219 8.83121C21.3224 8.72745 21.442 8.6448 21.574 8.58798C21.7059 8.53116 21.8476 8.50127 21.9909 8.50004C22.2803 8.49755 22.5588 8.61189 22.7652 8.81792L33.6722 19.7083L33.6867 19.7231C33.7887 19.8283 33.8689 19.9532 33.9227 20.0903C33.9764 20.2274 34.0026 20.3741 33.9998 20.5216C33.9969 20.6692 33.9651 20.8147 33.9061 20.9495C33.8471 21.0844 33.7621 21.206 33.6562 21.3071L22.7652 32.182C22.6631 32.284 22.5421 32.3646 22.4093 32.4191C22.2765 32.4737 22.1344 32.5012 21.9911 32.5C21.8478 32.4988 21.7062 32.4689 21.5743 32.4121C21.4424 32.3554 21.3228 32.2728 21.2223 32.1691C21.1218 32.0653 21.0424 31.9425 20.9887 31.8077C20.935 31.6728 20.9079 31.5286 20.9091 31.3831C20.9103 31.2376 20.9397 31.0938 20.9956 30.9599C21.0515 30.8259 21.1329 30.7045 21.235 30.6025L30.2438 21.6076L7.09092 21.6076C6.80159 21.6076 6.52411 21.4909 6.31952 21.2832C6.11494 21.0754 6 20.7937 6 20.4999Z" fill="#C5C5C5"/>
</svg>
